<svg width="1080" height="1080" viewBox="0 0 1080 1080" fill="none" xmlns="http://www.w3.org/2000/svg">
<g clip-path="url(#clip0_31_86)">
<path d="M540 1080C838.234 1080 1080 838.234 1080 540C1080 241.766 838.234 0 540 0C241.766 0 0 241.766 0 540C0 838.234 241.766 1080 540 1080Z" fill="#B4D8C2"/>
<path d="M250.57 505.6C279.44 505.6 302.84 529 302.84 557.87C302.84 586.74 279.44 610.14 250.57 610.14C221.7 610.14 198.3 586.74 198.3 557.87C198.3 529 221.7 505.6 250.57 505.6ZM250.57 425.6C232.75 425.6 215.42 429.11 199.06 436.03C183.3 442.7 169.16 452.22 157.04 464.34C144.92 476.46 135.39 490.6 128.73 506.36C121.81 522.72 118.3 540.05 118.3 557.87C118.3 575.69 121.81 593.02 128.73 609.38C135.4 625.14 144.92 639.28 157.04 651.4C169.16 663.52 183.3 673.05 199.06 679.71C215.42 686.63 232.75 690.14 250.57 690.14C268.39 690.14 285.72 686.63 302.08 679.71C317.84 673.04 331.98 663.52 344.1 651.4C356.22 639.28 365.75 625.14 372.41 609.38C379.33 593.02 382.84 575.69 382.84 557.87C382.84 540.05 379.33 522.72 372.41 506.36C365.74 490.6 356.22 476.46 344.1 464.34C331.98 452.22 317.84 442.69 302.08 436.03C285.72 429.11 268.39 425.6 250.57 425.6Z" fill="#004E5F"/>
<path d="M561.29 1001.92C467.83 1001.92 382.89 937.98 360.28 843.19L350.07 800.39L752.1 704.5L762.31 747.3C788.75 858.14 720.08 969.82 609.24 996.26C593.19 1000.09 577.11 1001.92 561.29 1001.92ZM464.31 863.61C491.49 902.06 540.3 922.24 588.82 910.66C637.35 899.09 671.79 859.05 678.69 812.48L464.31 863.61Z" fill="#004E5F"/>
<path d="M884.22 402.71H651.9C627.6 402.71 607.9 422.41 607.9 446.71C607.9 471.01 627.6 490.71 651.9 490.71H724.06V541.53C724.06 565.83 743.76 585.53 768.06 585.53C792.36 585.53 812.06 565.83 812.06 541.53V490.71H884.22C908.52 490.71 928.22 471.01 928.22 446.71C928.22 422.41 908.52 402.71 884.22 402.71Z" fill="#004E5F"/>
<path d="M790.79 246.24L731.42 181.28L731.55 181.16C731.31 181.37 707.36 202.7 670.05 219.5C623.16 240.62 577.4 245.27 534.03 233.32C531.82 232.69 529.55 232.23 527.23 231.95C522.71 231.4 518.23 231.58 513.91 232.39C513.83 232.4 513.76 232.42 513.68 232.44C513.08 232.56 512.48 232.68 511.89 232.82C511.57 232.9 511.25 232.98 510.93 233.07C510.59 233.16 510.24 233.25 509.9 233.34C509.43 233.48 508.96 233.62 508.49 233.78C508.3 233.84 508.12 233.9 507.93 233.96C507.37 234.15 506.82 234.35 506.28 234.56C506.18 234.6 506.08 234.63 505.98 234.67C505.39 234.9 504.81 235.14 504.24 235.4C504.18 235.43 504.11 235.45 504.05 235.48C503.47 235.74 502.9 236.01 502.34 236.29C502.27 236.32 502.2 236.36 502.14 236.39C501.6 236.66 501.07 236.95 500.55 237.24C500.45 237.3 500.34 237.35 500.24 237.41C499.77 237.68 499.3 237.96 498.84 238.25C498.68 238.35 498.53 238.44 498.37 238.54C497.98 238.79 497.59 239.05 497.2 239.32C496.98 239.47 496.76 239.62 496.54 239.78C496.23 240 495.93 240.22 495.63 240.45C495.34 240.67 495.05 240.89 494.76 241.11C494.54 241.28 494.33 241.46 494.11 241.64C493.75 241.93 493.4 242.22 493.05 242.53C492.91 242.65 492.78 242.77 492.64 242.9C492.23 243.27 491.82 243.64 491.42 244.02C491.35 244.09 491.28 244.15 491.22 244.22C490.77 244.66 490.33 245.11 489.89 245.57C489.87 245.59 489.85 245.61 489.83 245.63C488.41 247.15 487.09 248.78 485.89 250.5C485.89 250.5 485.89 250.51 485.88 250.52C485.49 251.08 485.11 251.65 484.75 252.22C484.7 252.3 484.66 252.38 484.61 252.45C484.3 252.95 483.99 253.46 483.7 253.98C483.58 254.19 483.47 254.41 483.35 254.62C483.14 255.01 482.93 255.39 482.73 255.79C482.51 256.22 482.31 256.66 482.1 257.1C482.01 257.29 481.92 257.47 481.84 257.66C480.05 261.65 478.83 265.95 478.3 270.45C478.01 272.83 477.93 275.2 478.03 277.54L489.28 620.49L443.6 625.5C419.44 628.15 402.01 649.88 404.66 674.04C407.13 696.56 426.19 713.24 448.34 713.24C449.94 713.24 451.56 713.15 453.19 712.97L503.23 707.48C546.74 702.7 579.22 664.82 577.34 621.13L567.71 327.43C572.44 327.68 577.13 327.8 581.76 327.8C699.89 327.8 786.47 250.16 790.77 246.23L790.79 246.24Z" fill="#004E5F"/>
</g>
<defs>
<clipPath id="clip0_31_86">
<rect width="1080" height="1080" fill="white"/>
</clipPath>
</defs>
</svg>
