<?xml version="1.0" encoding="UTF-8"?>
<svg id="Layer_2" data-name="Layer 2" xmlns="http://www.w3.org/2000/svg" viewBox="0 0 1080 1080">
    <defs>
        <style>
            .cls-1 {
            fill: #004e5f;
            }

            .cls-2 {
            fill: #fff;
            }

            .cls-3 {
            fill: #b4d8c2;
            }
        </style>
    </defs>
    <g id="Layer_1-2" data-name="Layer 1">
        <circle class="cls-3" cx="540" cy="540" r="540"/>
        <line class="cls-2" x1="651.89" y1="446.71" x2="884.22" y2="446.71"/>
        <path class="cls-1" d="m250.57,505.6c28.87,0,52.27,23.4,52.27,52.27s-23.4,52.27-52.27,52.27-52.27-23.4-52.27-52.27,23.4-52.27,52.27-52.27m0-80c-17.82,0-35.15,3.51-51.51,10.43-15.76,6.67-29.9,16.19-42.02,28.31-12.12,12.12-21.65,26.26-28.31,42.02-6.92,16.36-10.43,33.69-10.43,51.51s3.51,35.15,10.43,51.51c6.67,15.76,16.19,29.9,28.31,42.02,12.12,12.12,26.26,21.65,42.02,28.31,16.36,6.92,33.69,10.43,51.51,10.43s35.15-3.51,51.51-10.43c15.76-6.67,29.9-16.19,42.02-28.31,12.12-12.12,21.65-26.26,28.31-42.02,6.92-16.36,10.43-33.69,10.43-51.51s-3.51-35.15-10.43-51.51c-6.67-15.76-16.19-29.9-28.31-42.02-12.12-12.12-26.26-21.65-42.02-28.31-16.36-6.92-33.69-10.43-51.51-10.43h0Z"/>
        <path class="cls-1" d="m561.29,1001.92c-93.46,0-178.4-63.94-201.01-158.73l-10.21-42.8,402.03-95.89,10.21,42.8c26.44,110.84-42.23,222.52-153.07,248.96-16.05,3.83-32.13,5.66-47.95,5.66Zm-96.98-138.31c27.18,38.45,75.99,58.63,124.51,47.05,48.53-11.57,82.97-51.61,89.87-98.18l-214.38,51.13Z"/>
        <path class="cls-1" d="m884.22,402.71h-232.32c-24.3,0-44,19.7-44,44s19.7,44,44,44h72.16v50.82c0,24.3,19.7,44,44,44s44-19.7,44-44v-50.82h72.16c24.3,0,44-19.7,44-44s-19.7-44-44-44Z"/>
        <path class="cls-1" d="m790.79,246.24l-59.37-64.96.13-.12c-.24.21-24.19,21.54-61.5,38.34-46.89,21.12-92.65,25.77-136.02,13.82-2.21-.63-4.48-1.09-6.8-1.37-4.52-.55-9-.37-13.32.44-.08.01-.15.03-.23.05-.6.12-1.2.24-1.79.38-.32.08-.64.16-.96.25-.34.09-.69.18-1.03.27-.47.14-.94.28-1.41.44-.19.06-.37.12-.56.18-.56.19-1.11.39-1.65.6-.1.04-.2.07-.3.11-.59.23-1.17.47-1.74.73-.06.03-.13.05-.19.08-.58.26-1.15.53-1.71.81-.07.03-.14.07-.2.1-.54.27-1.07.56-1.59.85-.1.06-.21.11-.31.17-.47.27-.94.55-1.4.84-.16.1-.31.19-.47.29-.39.25-.78.51-1.17.78-.22.15-.44.3-.66.46-.31.22-.61.44-.91.67-.29.22-.58.44-.87.66-.22.17-.43.35-.65.53-.36.29-.71.58-1.06.89-.14.12-.27.24-.41.37-.41.37-.82.74-1.22,1.12-.07.07-.14.13-.2.2-.45.44-.89.89-1.33,1.35-.02.02-.04.04-.06.06-1.42,1.52-2.74,3.15-3.94,4.87,0,0,0,.01-.01.02-.39.56-.77,1.13-1.13,1.7-.05.08-.09.16-.14.23-.31.5-.62,1.01-.91,1.53-.12.21-.23.43-.35.64-.21.39-.42.77-.62,1.17-.22.43-.42.87-.63,1.31-.09.19-.18.37-.26.56-1.79,3.99-3.01,8.29-3.54,12.79-.29,2.38-.37,4.75-.27,7.09l11.25,342.95-45.68,5.01c-24.16,2.65-41.59,24.38-38.94,48.54,2.47,22.52,21.53,39.2,43.68,39.2,1.6,0,3.22-.09,4.85-.27l50.04-5.49c43.51-4.78,75.99-42.66,74.11-86.35l-9.63-293.7c4.73.25,9.42.37,14.05.37,118.13,0,204.71-77.64,209.01-81.57Z"/>
    </g>
</svg>