<svg width="1080" height="1080" viewBox="0 0 1080 1080" fill="none" xmlns="http://www.w3.org/2000/svg">
<g clip-path="url(#clip0_31_72)">
<path d="M540 1080C838.234 1080 1080 838.234 1080 540C1080 241.766 838.234 0 540 0C241.766 0 0 241.766 0 540C0 838.234 241.766 1080 540 1080Z" fill="#B4D8C2"/>
<path d="M403.04 876.99C383.14 876.99 365.1 863.4 360.28 843.19C354.64 819.55 369.23 795.82 392.87 790.18L709.3 714.7C732.94 709.06 756.67 723.65 762.31 747.29C767.95 770.93 753.36 794.66 729.72 800.3L413.29 875.77C409.86 876.59 406.42 876.98 403.04 876.98V876.99Z" fill="#004E5F"/>
<path d="M890.87 411.43L659.1 395.35C634.87 393.68 613.84 411.96 612.16 436.2C610.48 460.44 628.77 481.46 653.01 483.14L725 488.13L721.48 538.83C719.8 563.07 738.09 584.09 762.33 585.77C763.37 585.84 764.4 585.88 765.42 585.88C788.33 585.88 807.66 568.13 809.27 544.92L812.79 494.22L884.78 499.21C885.82 499.28 886.85 499.32 887.87 499.32C910.78 499.32 930.11 481.57 931.72 458.36C933.4 434.12 915.11 413.1 890.87 411.42V411.43Z" fill="#004E5F"/>
<path d="M790.79 246.24L731.42 181.28L731.55 181.16C731.31 181.37 707.36 202.7 670.05 219.5C623.16 240.62 577.4 245.27 534.03 233.32C531.82 232.69 529.55 232.23 527.23 231.95C522.71 231.4 518.23 231.58 513.91 232.39C513.83 232.4 513.76 232.42 513.68 232.44C513.08 232.56 512.48 232.68 511.89 232.82C511.57 232.9 511.25 232.98 510.93 233.07C510.59 233.16 510.24 233.25 509.9 233.34C509.43 233.48 508.96 233.62 508.49 233.78C508.3 233.84 508.12 233.9 507.93 233.96C507.37 234.15 506.82 234.35 506.28 234.56C506.18 234.6 506.08 234.63 505.98 234.67C505.39 234.9 504.81 235.14 504.24 235.4C504.18 235.43 504.11 235.45 504.05 235.48C503.47 235.74 502.9 236.01 502.34 236.29C502.27 236.32 502.2 236.36 502.14 236.39C501.6 236.66 501.07 236.95 500.55 237.24C500.45 237.3 500.34 237.35 500.24 237.41C499.77 237.68 499.3 237.96 498.84 238.25C498.68 238.35 498.53 238.44 498.37 238.54C497.98 238.79 497.59 239.05 497.2 239.32C496.98 239.47 496.76 239.62 496.54 239.78C496.23 240 495.93 240.22 495.63 240.45C495.34 240.67 495.05 240.89 494.76 241.11C494.54 241.28 494.33 241.46 494.11 241.64C493.75 241.93 493.4 242.22 493.05 242.53C492.91 242.65 492.78 242.77 492.64 242.9C492.23 243.27 491.82 243.64 491.42 244.02C491.35 244.09 491.28 244.15 491.22 244.22C490.77 244.66 490.33 245.11 489.89 245.57C489.87 245.59 489.85 245.61 489.83 245.63C488.41 247.15 487.09 248.78 485.89 250.5C485.89 250.5 485.89 250.51 485.88 250.52C485.49 251.08 485.11 251.65 484.75 252.22C484.7 252.3 484.66 252.38 484.61 252.45C484.3 252.95 483.99 253.46 483.7 253.98C483.58 254.19 483.47 254.41 483.35 254.62C483.14 255.01 482.93 255.39 482.73 255.79C482.51 256.22 482.31 256.66 482.1 257.1C482.01 257.29 481.92 257.47 481.84 257.66C480.05 261.65 478.83 265.95 478.3 270.45C478.01 272.83 477.93 275.2 478.03 277.54L489.28 620.49L443.6 625.5C419.44 628.15 402.01 649.88 404.66 674.04C407.13 696.56 426.19 713.24 448.34 713.24C449.94 713.24 451.56 713.15 453.19 712.97L503.23 707.48C546.74 702.7 579.22 664.82 577.34 621.13L567.71 327.43C572.44 327.68 577.13 327.8 581.76 327.8C699.89 327.8 786.47 250.16 790.77 246.23L790.79 246.24Z" fill="#004E5F"/>
<path d="M250.57 610.15C221.7 610.15 198.3 586.75 198.3 557.88H119.78C119.78 575.5 123.25 592.64 130.09 608.82C136.68 624.4 146.1 638.38 158.09 650.37C170.08 662.36 184.06 671.78 199.64 678.37C215.82 685.21 232.95 688.68 250.58 688.68C268.21 688.68 285.34 685.21 301.52 678.37C317.1 671.78 331.08 662.36 343.07 650.37C355.06 638.38 364.48 624.4 371.07 608.82C377.91 592.64 381.38 575.51 381.38 557.88H302.86C302.86 586.75 279.46 610.15 250.59 610.15H250.57Z" fill="#004E5F"/>
</g>
<defs>
<clipPath id="clip0_31_72">
<rect width="1080" height="1080" fill="white"/>
</clipPath>
</defs>
</svg>
